<svg height="512pt" viewBox="-14 0 512 512" width="512pt" xmlns="http://www.w3.org/2000/svg"><path d="m336.4375 303.703125-14.144531-123.882813c-3.347657-29.546874-26.753907-51.820312-54.378907-51.820312h-54.464843c-27.648438 0-51.027344 22.273438-54.398438 51.820312l-14.144531 123.902344c-1.195312 10.367188 2.003906 20.652344 8.769531 28.222656 5.824219 6.53125 13.546875 10.304688 21.90625 10.773438l11.777344 159.402344c.425781 5.570312 5.054687 9.878906 10.644531 9.878906h85.335938c5.585937 0 10.21875-4.308594 10.644531-9.878906l11.773437-159.402344c8.386719-.46875 16.085938-4.265625 21.910157-10.773438 6.765625-7.570312 9.941406-17.875 8.769531-28.242187zm0 0" fill="#455a64"/><g fill="#607d8b"><path d="m113.140625 300.074219 14.144531-123.882813c.554688-4.949218 1.515625-9.855468 2.878906-14.675781l-1.085937-.257813c-3.5-.851562-6.550781-1.257812-9.578125-1.257812h-52.652344c-21.484375 0-39.679687 16.0625-42.324218 37.375l-13.675782 109.3125c-.769531 6.058594 1.128906 12.183594 5.183594 16.769531 3.691406 4.179688 9.003906 6.78125 14.59375 7.144531l9.277344.621094 10.605468 148.777344h85.332032l8.191406-114.773438c-5.246094-3.242187-10.003906-7.273437-14.230469-11.988281-12.820312-14.359375-18.878906-33.75-16.660156-53.164062zm0 0"/><path d="m469.003906 323.457031c4.03125-4.585937 5.929688-10.710937 5.183594-16.769531l-13.675781-109.3125c-2.667969-21.3125-20.863281-37.375-42.347657-37.375h-52.671874c-4.203126 0-8.46875.683594-12.691407 2.003906l-1.386719.449219c1.257813 4.566406 2.152344 9.152344 2.664063 13.738281l14.144531 123.882813c2.21875 19.414062-3.859375 38.804687-16.683594 53.164062-3.261718 3.648438-6.847656 6.890625-10.75 9.664063l8.382813 117.097656h85.335937l10.621094-148.777344 9.28125-.621094c5.566406-.363281 10.902344-2.964843 14.59375-7.144531zm0 0"/><path d="m146.507812 74.667969c0 29.453125-23.878906 53.332031-53.335937 53.332031-29.453125 0-53.332031-23.878906-53.332031-53.332031 0-29.457031 23.878906-53.335938 53.332031-53.335938 29.457031 0 53.335937 23.878907 53.335937 53.335938zm0 0"/><path d="m445.171875 74.667969c0 29.453125-23.878906 53.332031-53.332031 53.332031-29.457032 0-53.332032-23.878906-53.332032-53.332031 0-29.457031 23.875-53.335938 53.332032-53.335938 29.453125 0 53.332031 23.878907 53.332031 53.335938zm0 0"/></g><path d="m294.003906 53.332031c0 29.457031-23.878906 53.335938-53.332031 53.335938-29.457031 0-53.332031-23.878907-53.332031-53.335938 0-29.453125 23.875-53.332031 53.332031-53.332031 29.453125 0 53.332031 23.878906 53.332031 53.332031zm0 0" fill="#455a64"/><path d="m93.171875 128c-29.394531 0-53.332031-23.9375-53.332031-53.332031 0-29.398438 23.9375-53.335938 53.332031-53.335938 29.398437 0 53.335937 23.9375 53.335937 53.335938 0 29.394531-23.9375 53.332031-53.335937 53.332031zm0-85.332031c-17.640625 0-32 14.355469-32 32 0 17.640625 14.359375 32 32 32 17.644531 0 32-14.359375 32-32 0-17.644531-14.355469-32-32-32zm0 0"/><path d="m391.839844 128c-29.398438 0-53.332032-23.9375-53.332032-53.332031 0-29.398438 23.933594-53.335938 53.332032-53.335938 29.398437 0 53.332031 23.9375 53.332031 53.335938 0 29.394531-23.933594 53.332031-53.332031 53.332031zm0-85.332031c-17.644532 0-32 14.355469-32 32 0 17.640625 14.355468 32 32 32 17.640625 0 32-14.359375 32-32 0-17.644531-14.359375-32-32-32zm0 0"/><path d="m283.339844 512h-85.335938c-5.589844 0-10.21875-4.308594-10.644531-9.878906l-11.777344-159.402344c-8.382812-.46875-16.082031-4.265625-21.90625-10.773438-6.742187-7.550781-9.941406-17.855468-8.769531-28.222656l14.144531-123.902344c3.371094-29.546874 26.75-51.820312 54.398438-51.820312h54.464843c27.625 0 51.03125 22.273438 54.378907 51.820312l14.144531 123.902344c1.195312 10.367188-2.003906 20.652344-8.769531 28.222656-5.824219 6.53125-13.546875 10.304688-21.910157 10.773438l-11.773437 159.402344c-.40625 5.570312-5.058594 9.878906-10.644531 9.878906zm-75.4375-21.332031h65.515625l11.777343-159.359375c.40625-5.570313 5.054688-9.878906 10.644532-9.878906h8.105468c3.925782 0 6.570313-2.324219 7.808594-3.691407 2.710938-3.050781 3.988282-7.273437 3.5-11.605469l-14.144531-123.902343c-2.15625-18.753907-16.40625-32.898438-33.195313-32.898438h-54.464843c-16.789063 0-31.058594 14.144531-33.195313 32.898438l-14.140625 123.902343c-.492187 4.332032.789063 8.554688 3.496094 11.605469 1.238281 1.367188 3.90625 3.691407 7.808594 3.691407h8.105469c5.589843 0 10.21875 4.308593 10.648437 9.878906zm0 0"/><path d="m240.671875 106.667969c-29.398437 0-53.332031-23.9375-53.332031-53.335938 0-29.394531 23.933594-53.332031 53.332031-53.332031s53.332031 23.9375 53.332031 53.332031c0 29.398438-23.933594 53.335938-53.332031 53.335938zm0-85.335938c-17.644531 0-32 14.359375-32 32 0 17.644531 14.355469 32 32 32 17.640625 0 32-14.355469 32-32 0-17.640625-14.359375-32-32-32zm0 0"/><path d="m135.839844 490.667969h-85.332032c-5.589843 0-10.242187-4.332031-10.648437-9.898438l-9.960937-139.5c-8.40625-.554687-16.277344-4.394531-21.886719-10.753906-6.082031-6.890625-8.898438-16.039063-7.765625-25.148437l13.671875-109.3125c3.328125-26.648438 26.070312-46.722657 52.929687-46.722657h52.671875c4.265625 0 8.535157.597657 13.460938 1.878907 5.695312 1.492187 9.109375 7.339843 7.617187 13.035156-1.492187 5.695312-7.316406 9.085937-13.035156 7.617187-3.113281-.8125-5.675781-1.195312-8.0625-1.195312h-52.652344c-16.105468 0-29.761718 12.050781-31.765625 28.03125l-13.675781 109.3125c-.382812 3.09375.535156 6.058593 2.582031 8.382812 2.070313 2.324219 4.90625 3.605469 8.023438 3.605469h7.828125c5.589844 0 10.238281 4.332031 10.644531 9.898438l9.941406 139.433593h65.472657l7.507812-105c.40625-5.867187 5.335938-10.410156 11.394531-9.878906 5.867188.425781 10.304688 5.527344 9.875 11.390625l-8.210937 114.925781c-.386719 5.566407-5.035156 9.898438-10.625 9.898438zm0 0"/><path d="m434.507812 490.667969h-85.335937c-5.589844 0-10.238281-4.332031-10.644531-9.898438l-8.382813-117.335937c-.425781-5.867188 4.011719-10.984375 9.875-11.390625 5.953125-.578125 10.964844 4.011719 11.394531 9.878906l7.679688 107.410156h65.472656l9.960938-139.433593c.40625-5.566407 5.054687-9.898438 10.644531-9.898438h7.832031c3.113282 0 5.949219-1.28125 8-3.605469 2.046875-2.324219 2.964844-5.3125 2.578125-8.382812l-13.671875-109.3125c-1.984375-15.980469-15.636718-28.03125-31.746094-28.03125h-52.671874c-3.496094 0-7.082032.640625-10.644532 1.898437-5.566406 1.984375-11.648437-.941406-13.609375-6.488281-1.964843-5.542969.9375-11.644531 6.484375-13.609375 5.886719-2.089844 11.859375-3.136719 17.792969-3.136719h52.671875c26.835938 0 49.597656 20.074219 52.90625 46.722657l13.675781 109.3125c1.128907 9.109374-1.6875 18.257812-7.765625 25.148437-5.613281 6.359375-13.484375 10.199219-21.890625 10.753906l-9.960937 139.5c-.40625 5.566407-5.058594 9.898438-10.644532 9.898438zm0 0"/></svg>