<?xml version="1.0" encoding="iso-8859-1"?>
<!-- Generator: Adobe Illustrator 19.0.0, SVG Export Plug-In . SVG Version: 6.00 Build 0)  -->
<svg version="1.1" id="Capa_1" xmlns="http://www.w3.org/2000/svg" xmlns:xlink="http://www.w3.org/1999/xlink" x="0px" y="0px"
	 viewBox="0 0 490.667 490.667" style="enable-background:new 0 0 490.667 490.667;" xml:space="preserve">
<path style="fill:#455A64;" d="M281.28,220.459c21.754-19.859,23.291-53.593,3.432-75.347
	c-19.859-21.754-53.593-23.291-75.347-3.432s-23.291,53.593-3.432,75.347c1.091,1.195,2.236,2.341,3.432,3.432
	c-36.236,14.643-59.978,49.792-60.032,88.875c0,5.891,4.776,10.667,10.667,10.667h170.667c5.891,0,10.667-4.776,10.667-10.667
	C341.276,270.245,317.525,235.095,281.28,220.459z"/>
<g>
	<circle style="fill:#2196F3;" cx="117.333" cy="96" r="53.333"/>
	<circle style="fill:#2196F3;" cx="53.333" cy="245.333" r="53.333"/>
	<circle style="fill:#2196F3;" cx="117.333" cy="394.667" r="53.333"/>
	<circle style="fill:#2196F3;" cx="373.333" cy="394.667" r="53.333"/>
	<circle style="fill:#2196F3;" cx="437.333" cy="245.333" r="53.333"/>
	<circle style="fill:#2196F3;" cx="373.333" cy="96" r="53.333"/>
	<path style="fill:#2196F3;" d="M170.667,160c-2.831,0.005-5.548-1.115-7.552-3.115l-21.333-21.333
		c-4.092-4.237-3.975-10.99,0.262-15.083c4.134-3.992,10.687-3.992,14.82,0l21.333,21.333c4.159,4.172,4.149,10.926-0.024,15.085
		C176.18,158.875,173.482,159.994,170.667,160z"/>
	<path style="fill:#2196F3;" d="M138.667,256H96c-5.891,0-10.667-4.776-10.667-10.667c0-5.891,4.776-10.667,10.667-10.667h42.667
		c5.891,0,10.667,4.776,10.667,10.667C149.333,251.224,144.558,256,138.667,256z"/>
	<path style="fill:#2196F3;" d="M149.333,373.333c-5.891,0.011-10.675-4.757-10.686-10.648c-0.005-2.84,1.123-5.565,3.134-7.571
		l21.333-21.333c4.237-4.093,10.99-3.975,15.083,0.262c3.993,4.134,3.993,10.687,0,14.821l-21.333,21.333
		C154.868,372.199,152.16,373.327,149.333,373.333z"/>
	<path style="fill:#2196F3;" d="M341.333,373.333c-2.831,0.005-5.548-1.115-7.552-3.115l-21.333-21.333
		c-4.093-4.237-3.975-10.99,0.262-15.083c4.134-3.993,10.687-3.993,14.821,0l21.333,21.333c4.159,4.172,4.149,10.926-0.023,15.085
		C346.847,372.208,344.148,373.327,341.333,373.333z"/>
	<path style="fill:#2196F3;" d="M394.667,256H352c-5.891,0-10.667-4.776-10.667-10.667c0-5.891,4.776-10.667,10.667-10.667h42.667
		c5.891,0,10.667,4.776,10.667,10.667C405.333,251.224,400.558,256,394.667,256z"/>
	<path style="fill:#2196F3;" d="M320,160c-5.891,0.011-10.675-4.757-10.686-10.648c-0.005-2.84,1.123-5.565,3.134-7.571
		l21.333-21.333c4.093-4.237,10.845-4.354,15.083-0.262c4.237,4.093,4.354,10.845,0.262,15.083
		c-0.086,0.089-0.173,0.176-0.262,0.262l-21.333,21.333C325.535,158.866,322.827,159.994,320,160z"/>
</g>
<path d="M245.333,234.667c-29.455,0-53.333-23.878-53.333-53.333C192,151.878,215.878,128,245.333,128s53.333,23.878,53.333,53.333
	C298.667,210.789,274.789,234.667,245.333,234.667z M245.333,149.333c-17.673,0-32,14.327-32,32s14.327,32,32,32s32-14.327,32-32
	S263.006,149.333,245.333,149.333z"/>
<path d="M330.667,320H160c-5.891,0-10.667-4.776-10.667-10.667c0-53.019,42.981-96,96-96s96,42.981,96,96
	C341.333,315.224,336.558,320,330.667,320z M171.413,298.667h147.84c-5.817-40.825-43.628-69.204-84.453-63.387
	C201.927,239.964,176.097,265.794,171.413,298.667z"/>
<path d="M117.333,149.333C87.878,149.333,64,125.455,64,96s23.878-53.333,53.333-53.333S170.667,66.545,170.667,96
	S146.789,149.333,117.333,149.333z M117.333,64c-17.673,0-32,14.327-32,32s14.327,32,32,32s32-14.327,32-32S135.006,64,117.333,64z"
	/>
<path d="M53.333,298.667C23.878,298.667,0,274.789,0,245.333S23.878,192,53.333,192s53.333,23.878,53.333,53.333
	S82.789,298.667,53.333,298.667z M53.333,213.333c-17.673,0-32,14.327-32,32s14.327,32,32,32s32-14.327,32-32
	S71.006,213.333,53.333,213.333z"/>
<path d="M117.333,448C87.878,448,64,424.122,64,394.667s23.878-53.333,53.333-53.333s53.333,23.878,53.333,53.333
	S146.789,448,117.333,448z M117.333,362.667c-17.673,0-32,14.327-32,32s14.327,32,32,32s32-14.327,32-32
	S135.006,362.667,117.333,362.667z"/>
<path d="M373.333,448C343.878,448,320,424.122,320,394.667s23.878-53.333,53.333-53.333s53.333,23.878,53.333,53.333
	S402.789,448,373.333,448z M373.333,362.667c-17.673,0-32,14.327-32,32s14.327,32,32,32s32-14.327,32-32
	S391.006,362.667,373.333,362.667z"/>
<path d="M437.333,298.667c-29.455,0-53.333-23.878-53.333-53.333S407.878,192,437.333,192s53.333,23.878,53.333,53.333
	S466.789,298.667,437.333,298.667z M437.333,213.333c-17.673,0-32,14.327-32,32s14.327,32,32,32s32-14.327,32-32
	S455.006,213.333,437.333,213.333z"/>
<path d="M373.333,149.333C343.878,149.333,320,125.455,320,96s23.878-53.333,53.333-53.333S426.667,66.545,426.667,96
	S402.789,149.333,373.333,149.333z M373.333,64c-17.673,0-32,14.327-32,32s14.327,32,32,32s32-14.327,32-32S391.006,64,373.333,64z"
	/>
<path d="M170.667,160c-2.831,0.005-5.548-1.115-7.552-3.115l-21.333-21.333c-4.092-4.237-3.975-10.99,0.262-15.083
	c4.134-3.992,10.687-3.992,14.82,0l21.333,21.333c4.159,4.172,4.149,10.926-0.024,15.085
	C176.18,158.875,173.482,159.994,170.667,160z"/>
<path d="M138.667,256H96c-5.891,0-10.667-4.776-10.667-10.667c0-5.891,4.776-10.667,10.667-10.667h42.667
	c5.891,0,10.667,4.776,10.667,10.667C149.333,251.224,144.558,256,138.667,256z"/>
<path d="M149.333,373.333c-5.891,0.011-10.675-4.757-10.686-10.648c-0.005-2.84,1.123-5.565,3.134-7.571l21.333-21.333
	c4.237-4.093,10.99-3.975,15.083,0.262c3.993,4.134,3.993,10.687,0,14.821l-21.333,21.333
	C154.868,372.199,152.16,373.327,149.333,373.333z"/>
<path d="M341.333,373.333c-2.831,0.005-5.548-1.115-7.552-3.115l-21.333-21.333c-4.093-4.237-3.975-10.99,0.262-15.083
	c4.134-3.993,10.687-3.993,14.821,0l21.333,21.333c4.159,4.172,4.149,10.926-0.023,15.085
	C346.847,372.208,344.148,373.327,341.333,373.333z"/>
<path d="M394.667,256H352c-5.891,0-10.667-4.776-10.667-10.667c0-5.891,4.776-10.667,10.667-10.667h42.667
	c5.891,0,10.667,4.776,10.667,10.667C405.333,251.224,400.558,256,394.667,256z"/>
<path d="M320,160c-5.891,0.011-10.675-4.757-10.686-10.648c-0.005-2.84,1.123-5.565,3.134-7.571l21.333-21.333
	c4.093-4.237,10.845-4.354,15.083-0.262c4.237,4.093,4.354,10.845,0.262,15.083c-0.086,0.089-0.173,0.176-0.262,0.262
	l-21.333,21.333C325.535,158.866,322.827,159.994,320,160z"/>
<g>
</g>
<g>
</g>
<g>
</g>
<g>
</g>
<g>
</g>
<g>
</g>
<g>
</g>
<g>
</g>
<g>
</g>
<g>
</g>
<g>
</g>
<g>
</g>
<g>
</g>
<g>
</g>
<g>
</g>
</svg>
