<svg id="Capa_1" enable-background="new 0 0 512 512" height="512" viewBox="0 0 512 512" width="512" xmlns="http://www.w3.org/2000/svg"><g><path d="m482 422.09v-60.114h-45c-78.818 0-150.297 47.953-180.449 120h-1.102c-30.152-72.047-100.631-120-179.449-120h-46v60.114c-1.058-.009-2.104-.114-3.164-.114h-26.836v30h26.836c110.426 0 176.992 51.593 194.623 60h69.082c3.108-1.482 80.767-60 194.623-60h26.836v-30h-26.836c-1.06 0-2.106.104-3.164.114z"/><path d="m255.971 177.856c12.158-9.111 30.029-25.928 30.029-41.88 0-16.055-17.827-32.813-29.971-41.88-12.158 9.112-30.029 25.928-30.029 41.88 0 16.055 17.827 32.813 29.971 41.88z"/><path d="m181 269.35v62.626h150v-62.553c0-12.583 5.962-25.034 16.787-35.054 27.861-25.766 43.213-60.717 43.213-98.393 0-75.384-61.251-136.483-136.172-135.949-74.718.533-133.821 60.854-133.819 135.949.002 37.337 15.249 72.691 43.541 98.701 10.605 9.741 16.45 22.061 16.45 34.673zm67.31-206.25 7.69-4.6 7.69 4.6c5.347 3.193 52.31 32.402 52.31 72.876 0 32.73-30.423 57.823-45 68.018v36.982h-30v-36.982c-14.577-10.195-45-35.288-45-68.018 0-40.474 46.963-69.683 52.31-72.876z"/><path d="m211 361.976h90v30h-90z"/></g></svg>