<svg viewBox="0 0 512.00027 512" xmlns="http://www.w3.org/2000/svg"><path d="m8.804688 51.230469c-15.894532 33.429687-10.351563 74.5 17.316406 102.167969 27.667968 27.667968 68.738281 33.210937 102.167968 17.316406l212.996094 212.996094c-15.898437 33.429687-10.355468 74.5 17.3125 102.167968 27.671875 27.667969 68.742188 33.210938 102.171875 17.316406l-59.742187-59.746093 42.425781-42.425781 59.742187 59.742187c15.894532-33.425781 10.355469-74.5-17.316406-102.167969-27.667968-27.667968-68.738281-33.210937-102.167968-17.316406l-212.996094-212.992188c15.894531-33.425781 10.355468-74.5-17.3125-102.167968-27.671875-27.671875-68.742188-33.210938-102.171875-17.316406l59.742187 59.742187-42.425781 42.425781zm0 0"/><path d="m17.574219 494.425781c23.429687 23.433594 61.421875 23.433594 84.851562 0l132.464844-132.464843 21.214844 21.214843 21.210937-21.214843-127.277344-127.277344-21.214843 21.210937 21.214843 21.214844-132.464843 132.464844c-23.433594 23.429687-23.433594 61.421875 0 84.851562zm143.070312-164.285156 21.210938 21.214844-111.25 111.25-21.210938-21.214844zm0 0"/><path d="m383.570312 35.351562 25.328126 25.328126-131.6875 131.683593 42.425781 42.429688 131.6875-131.691407 25.324219 25.328126 35.351562-91.925782-36.5-36.503906zm0 0"/></svg>