<?xml version="1.0" standalone="no"?>
<!DOCTYPE svg PUBLIC "-//W3C//DTD SVG 20010904//EN"
 "http://www.w3.org/TR/2001/REC-SVG-20010904/DTD/svg10.dtd">
<svg version="1.0" xmlns="http://www.w3.org/2000/svg"
 width="501.000000pt" height="498.000000pt" viewBox="0 0 501.000000 498.000000"
 preserveAspectRatio="xMidYMid meet">
<metadata>
Created by potrace 1.16, written by Peter Selinger 2001-2019
</metadata>
<g transform="translate(0.000000,498.000000) scale(0.100000,-0.100000)"
fill="#000000" stroke="none">
<path d="M1550 2937 c-41 -15 -79 -36 -66 -37 5 0 -1 -11 -14 -25 -37 -39 -39
-135 -6 -264 15 -57 24 -111 21 -119 -3 -9 -1 -18 5 -22 5 -3 23 -58 40 -121
16 -63 41 -156 55 -207 14 -51 22 -98 19 -104 -5 -7 -2 -8 6 -3 10 6 12 4 7
-8 -4 -10 -2 -16 6 -14 7 1 11 -2 10 -8 -1 -5 11 -12 25 -15 15 -2 552 -4
1194 -5 692 0 1164 -4 1161 -9 -4 -5 -1 -6 6 -2 7 5 10 10 7 13 -6 6 26 43 34
38 3 -2 6 4 7 13 7 74 17 112 25 100 8 -10 8 -9 4 4 -3 10 4 45 14 79 11 34
20 69 20 79 0 9 9 43 21 76 22 63 31 100 31 124 0 8 11 53 25 100 24 86 33
195 19 240 -10 31 -65 90 -84 90 -7 0 -11 4 -7 10 10 15 -2541 13 -2585 -3z
m605 -163 c41 -14 82 -35 91 -45 9 -10 23 -19 30 -19 31 0 20 -21 -33 -61 -54
-42 -72 -51 -83 -39 -19 20 -85 43 -136 47 -54 5 -63 3 -82 -18 -46 -48 -22
-68 123 -103 131 -31 169 -47 179 -71 3 -9 10 -14 15 -10 10 5 31 -25 39 -55
2 -8 4 -44 4 -79 0 -48 -5 -69 -20 -90 -11 -14 -25 -25 -31 -24 -6 2 -8 -4 -5
-12 6 -15 -48 -44 -121 -66 -51 -16 -196 -12 -245 6 -25 9 -55 19 -67 22 -12
3 -37 20 -57 38 -20 18 -36 31 -36 28 0 -2 -5 -1 -10 2 -17 10 10 37 31 32 12
-3 16 0 12 10 -3 9 7 26 26 44 34 30 47 37 35 17 -5 -7 -3 -8 6 -3 7 4 15 4
19 -1 3 -5 27 -20 53 -34 39 -20 62 -24 125 -24 52 0 78 4 81 12 2 7 7 10 11
7 4 -2 7 14 6 37 -1 32 -6 42 -21 44 -103 15 -240 56 -286 85 -20 13 -44 39
-53 57 -20 40 -24 134 -7 154 6 8 9 18 5 21 -9 9 38 58 49 51 5 -3 7 0 6 6 -2
7 24 23 57 36 86 33 193 33 290 -2z m1625 -3 c36 -16 64 -34 62 -41 -1 -6 1
-9 6 -6 10 6 54 -38 71 -72 10 -18 9 -23 -2 -28 -8 -3 -18 -4 -23 -3 -5 2 -25
-4 -45 -13 -67 -29 -77 -30 -88 -10 -6 11 -8 22 -5 24 3 3 -2 8 -11 12 -11 4
-14 2 -8 -6 4 -7 -6 -3 -21 10 -67 52 -184 12 -207 -72 -14 -50 -16 -125 -6
-188 8 -47 45 -97 83 -112 25 -11 94 -13 94 -3 0 4 5 7 12 7 22 0 69 64 66 89
-3 24 -6 25 -60 22 l-58 -2 0 60 0 61 150 0 150 0 0 -180 0 -180 -80 0 c-80 0
-80 0 -80 27 0 24 -2 25 -17 12 -51 -42 -101 -59 -172 -59 -52 0 -70 3 -65 12
5 7 3 8 -5 4 -14 -9 -71 12 -71 25 0 5 -6 6 -12 4 -7 -2 -29 16 -48 42 -19 26
-41 52 -48 59 -21 22 -35 124 -29 230 4 88 8 106 32 145 55 87 93 115 205 152
8 3 49 6 90 6 61 0 87 -5 140 -28z m-795 -11 c22 -7 56 -29 76 -49 33 -33 36
-42 43 -110 4 -49 3 -78 -4 -85 -8 -8 -9 -5 -5 9 5 14 2 13 -9 -5 -8 -14 -15
-33 -16 -43 0 -10 -4 -15 -10 -12 -5 3 -7 0 -4 -8 5 -15 -22 -44 -32 -34 -4 3
-15 -3 -27 -13 -19 -18 -19 -21 -5 -37 8 -10 13 -24 10 -32 -2 -8 0 -11 5 -8
6 4 16 -5 23 -18 7 -14 17 -25 22 -25 4 0 8 -5 8 -12 0 -6 11 -26 25 -43 13
-18 22 -35 18 -38 -3 -3 7 -17 22 -31 l26 -24 -118 1 c-90 2 -117 5 -115 15 1
7 -7 23 -19 35 -11 12 -32 45 -46 72 -14 28 -32 63 -40 78 -12 22 -21 27 -42
25 l-26 -3 -3 -113 -3 -113 -89 2 -90 2 0 319 0 320 193 -5 c110 -2 209 -10
232 -17z"/>
<path d="M2746 2634 c-3 -9 -6 -42 -6 -75 l0 -59 59 0 c70 0 111 13 111 35 0
9 4 14 9 11 12 -8 6 45 -7 70 -9 17 -22 21 -78 23 -37 1 -71 4 -75 7 -4 2 -10
-3 -13 -12z"/>
<path d="M1037 2793 c-4 -3 -7 -13 -7 -20 0 -8 -12 -40 -26 -71 -14 -31 -28
-70 -30 -86 -2 -15 -8 -33 -13 -40 -5 -6 -16 -33 -24 -61 -9 -27 -32 -95 -52
-150 -20 -55 -45 -125 -54 -155 -10 -30 -25 -68 -33 -85 -9 -16 -19 -49 -23
-72 -4 -24 -11 -45 -16 -49 -28 -17 2 -24 105 -24 110 0 115 1 121 23 3 12 16
55 28 94 l22 73 101 0 101 0 9 -42 9 -43 114 -3 c63 -1 118 1 123 6 4 4 -3 46
-17 93 -14 46 -24 94 -22 107 2 12 1 22 -3 22 -9 0 -86 283 -83 308 0 7 -2 11
-5 7 -3 -3 -12 23 -19 57 -7 35 -18 75 -24 91 l-11 27 -133 0 c-72 0 -135 -3
-138 -7z"/>
</g>
</svg>
