<?xml version="1.0" encoding="iso-8859-1"?>
<!-- Generator: Adobe Illustrator 19.0.0, SVG Export Plug-In . SVG Version: 6.00 Build 0)  -->
<svg version="1.1" id="Capa_1" xmlns="http://www.w3.org/2000/svg" xmlns:xlink="http://www.w3.org/1999/xlink" x="0px" y="0px"
	 viewBox="0 0 512 512" style="enable-background:new 0 0 512 512;" xml:space="preserve">
<g>
	<g>
		<path d="M375.771,68.828l-68.927,68.928l9.41,9.41l-30.549,30.747h-57.877l-31.297-31.534l8.624-8.624l-68.927-68.928L0,205.057
			l68.927,68.928l9.423-9.423l30.352,30.352l6.933,48.532l99.728,99.727h76.681l99.648-97.668l0.72,0.128l11.89-50.191
			l30.113-30.114l8.658,8.658L512,205.057L375.771,68.828z M68.927,231.511l-26.454-26.454l93.755-93.755l26.454,26.454
			L68.927,231.511z M279.78,413.139h-51.978l-83.851-83.851l-6.933-48.533l-37.432-37.432l75.708-75.708l32.779,33.028
			l-64.266,60.606l60.417,60.417l55.766-52.089l63.856,63.856l31.53,5.609L279.78,413.139z M377.04,280.228l-7.311,30.864
			l-31.324-5.573l-77.703-77.703l-55.766,52.089l-18.024-18.023l57.192-53.935h25.066h29.034l39.287-39.543l75.686,75.687
			L377.04,280.228z M443.073,231.511l-93.755-93.755l26.454-26.454l93.755,93.755L443.073,231.511z"/>
	</g>
</g>
<g>
</g>
<g>
</g>
<g>
</g>
<g>
</g>
<g>
</g>
<g>
</g>
<g>
</g>
<g>
</g>
<g>
</g>
<g>
</g>
<g>
</g>
<g>
</g>
<g>
</g>
<g>
</g>
<g>
</g>
</svg>
