<svg id="Capa_1" enable-background="new 0 0 512 512" height="512" viewBox="0 0 512 512" width="512" xmlns="http://www.w3.org/2000/svg"><g><path d="m112.787 270.813c6.357 60.77 50.671 110.404 108.739 124.72-20.706-34.638-33.026-78.006-35.089-124.72z"/><path d="m222.969 115.563c-58.834 13.856-103.861 63.896-110.203 125.25h73.763c2.361-47.079 15.14-90.685 36.44-125.25z"/><path d="m399.201 240.813c-6.34-61.339-51.346-111.369-110.158-125.239 21.296 34.563 34.073 78.165 36.433 125.239z"/><path d="m256.003 393.365c23.238-31.652 37.229-74.911 39.535-122.551h-79.07c2.306 47.639 16.297 90.899 39.535 122.551z"/><path d="m256.003 120.135c-22.933 31.238-36.867 73.778-39.444 120.678h78.889c-2.579-46.9-16.512-89.44-39.445-120.678z"/><path d="m290.486 395.522c58.046-14.33 102.339-63.955 108.695-124.709h-73.612c-2.063 46.71-14.381 90.074-35.083 124.709z"/><path d="m52.983 355.28c-24.427-49.793-29.58-106.764-14.513-160.417 15.173-54.03 49.72-100.247 97.276-130.137 34.165-21.474 73.417-33.434 113.513-34.587 28.616-.829 57.16 3.842 83.97 13.571 2.952-9.912 7.972-18.935 14.557-26.581-31.596-12.109-65.448-17.947-99.39-16.976-45.445 1.308-89.918 14.854-128.614 39.175-53.87 33.86-93.003 86.216-110.193 147.424-17.065 60.769-11.219 125.312 16.463 181.74z"/><path d="m478.801 130.077-26.103 14.78c28.658 50.614 36.624 109.637 22.43 166.197-14.238 56.735-49.364 105.13-98.906 136.269-36.78 23.117-78.371 34.711-120.033 34.709-30.683-.001-61.4-6.307-90.255-18.914-3.625 9.649-9.246 18.326-16.365 25.525 33.435 15.307 69.889 23.308 106.845 23.308.481 0 .966-.001 1.447-.004 47.472-.268 93.921-13.833 134.324-39.227 56.119-35.273 95.908-90.094 112.038-154.364 16.077-64.066 7.049-130.931-25.422-188.279z"/><circle cx="98.045" cy="437.701" r="43.498"/><ellipse cx="402.712" cy="64.367" rx="43.498" ry="43.498" transform="matrix(.383 -.924 .924 .383 189.133 411.792)"/></g></svg>