<svg height="490pt" viewBox="0 -64 490.66667 490" width="490pt" xmlns="http://www.w3.org/2000/svg"><g fill="#607d8b"><path d="m213.972656 296.824219c1.152344-5.761719-2.558594-11.347657-8.296875-12.542969-19.160156-3.949219-41.8125-6.613281-56.34375-6.613281-14.738281 0-57.171875 1.109375-85.332031 12.96875v-247.636719c0-3.285156-1.515625-6.378906-4.097656-8.40625-2.601563-2.027344-5.972656-2.773438-9.148438-1.941406l-42.667968 10.667968c-4.757813 1.195313-8.085938 5.460938-8.085938 10.347657v298.664062c0 3.03125 1.300781 5.933594 3.5625 7.957031 1.960938 1.75 4.480469 2.710938 7.105469 2.710938.402343 0 .789062-.019531 1.171875-.0625l192-21.335938c5.417968-.597656 9.492187-5.160156 9.492187-10.601562l-.210937-29.910156zm0 0"/><path d="m482.582031 43.320312-42.667969-10.667968c-3.15625-.808594-6.546874-.085938-9.152343 1.941406-2.601563 2.027344-4.09375 5.121094-4.09375 8.40625v248.894531c-26.304688-9.769531-68.566407-14.226562-85.335938-14.226562-7.039062 0-31.890625.363281-56.339843 4.863281-5.761719 1.066406-9.601563 6.589844-8.554688 12.351562l.894531 36.117188c0 5.441406 4.074219 10.003906 9.496094 10.601562l192 21.335938c.382813.042969.765625.0625 1.171875.0625 2.625 0 5.140625-.960938 7.105469-2.710938 2.261719-2.023437 3.5625-4.925781 3.5625-7.957031v-298.664062c0-4.886719-3.328125-9.152344-8.085938-10.347657zm0 0"/><path d="m298.496094 297.144531-1.066406-5.972656c-.492188-2.796875-2.089844-5.292969-4.4375-6.914063-2.324219-1.597656-5.207032-2.21875-8.023438-1.726562-17.621094 3.261719-30.824219 7.828125-40.039062 13.867188-10.839844-5.972657-26.710938-9.835938-39.511719-12.160157-5.714844-1.089843-11.21875 2.6875-12.371094 8.40625l-1.046875 38.355469c0 18.238281 22.933594 32 53.332031 32 30.402344 0 53.335938-13.761719 53.335938-32v-32c0-.617188-.042969-1.257812-.171875-1.855469zm0 0"/></g><path d="m245.332031 19.535156v300.796875c-2.773437 0-5.546875-1.066406-7.464843-3.199219-3.199219-3.199218-16-8.105468-36.265626-11.945312-17.921874-3.628906-39.253906-6.1875-52.269531-6.1875-33.917969 0-75.945312 5.761719-88.53125 18.132812-2.988281 3.199219-7.46875 4.054688-11.519531 2.347657-4.054688-1.707031-6.613281-5.546875-6.613281-9.8125v-277.335938c0-2.773437 1.066406-5.546875 3.199219-7.464843 22.613281-22.828126 84.90625-24.535157 103.464843-24.535157 19.203125 0 72.535157 5.761719 96 19.203125zm0 0" fill="#eceff1"/><path d="m448 32.332031v277.335938c0 4.265625-2.558594 8.105469-6.613281 9.8125-1.28125.640625-2.773438.851562-4.054688.851562-2.773437 0-5.546875-1.066406-7.464843-3.199219-8.746094-8.53125-60.160157-18.132812-88.535157-18.132812-6.613281 0-29.867187.425781-52.480469 4.480469-22.613281 4.265625-32 9.8125-36.050781 13.652343-2.132812 2.132813-4.695312 3.199219-7.46875 3.199219v-301.226562c26.667969-17.277344 79.148438-18.773438 96-18.773438 21.761719 0 86.613281 7.46875 103.46875 24.535157 2.132813 1.917968 3.199219 4.691406 3.199219 7.464843zm0 0" fill="#cfd8dc"/><path d="m245.332031 320.332031c-2.773437 0-5.503906-1.085937-7.550781-3.113281-8.597656-8.617188-60.074219-18.21875-88.449219-18.21875-33.832031 0-75.945312 5.695312-88.445312 18.21875-3.050781 3.050781-7.640625 3.988281-11.628907 2.304688-3.988281-1.644532-6.589843-5.546876-6.589843-9.855469v-277.335938c0-2.835937 1.128906-5.546875 3.113281-7.550781 22.699219-22.675781 84.992188-24.449219 103.550781-24.449219 21.78125 0 86.613281 7.53125 103.554688 24.449219 1.984375 2.003906 3.113281 4.714844 3.113281 7.550781v277.335938c0 4.308593-2.601562 8.210937-6.59375 9.855469-1.320312.554687-2.707031.808593-4.074219.808593zm-96-42.664062c16.769531 0 59.03125 4.457031 85.335938 14.226562v-254.25c-14.167969-7.957031-59.394531-15.976562-85.335938-15.976562-31.421875 0-69.972656 4.90625-85.332031 15.613281v253.355469c28.160156-11.859375 70.59375-12.96875 85.332031-12.96875zm0 0"/><path d="m437.332031 320.332031c-2.773437 0-5.503906-1.085937-7.550781-3.113281-8.597656-8.617188-60.074219-18.21875-88.449219-18.21875-33.832031 0-75.945312 5.695312-88.445312 18.21875-3.050781 3.050781-7.640625 3.988281-11.628907 2.304688-3.988281-1.644532-6.589843-5.546876-6.589843-9.855469v-277.335938c0-2.835937 1.128906-5.546875 3.113281-7.550781 22.699219-22.675781 84.992188-24.449219 103.550781-24.449219 21.78125 0 86.613281 7.53125 103.554688 24.449219 1.984375 2.003906 3.113281 4.714844 3.113281 7.550781v277.335938c0 4.308593-2.601562 8.210937-6.59375 9.855469-1.320312.554687-2.707031.808593-4.074219.808593zm-96-42.664062c16.769531 0 59.03125 4.457031 85.335938 14.226562v-254.25c-14.167969-7.957031-59.394531-15.976562-85.335938-15.976562-31.421875 0-69.972656 4.90625-85.332031 15.613281v253.355469c28.160156-11.859375 70.59375-12.96875 85.332031-12.96875zm0 0"/><path d="m480 363c-.40625 0-.789062-.019531-1.171875-.0625l-183.488281-20.394531c-7.382813 12.199219-26.453125 20.457031-50.007813 20.457031-23.550781 0-42.621093-8.257812-50.003906-20.4375l-183.488281 20.394531c-3.007813.363281-6.015625-.617187-8.296875-2.667969-2.242188-2.023437-3.542969-4.925781-3.542969-7.957031v-298.664062c0-4.886719 3.328125-9.152344 8.085938-10.347657l42.667968-10.667968c5.714844-1.449219 11.496094 2.050781 12.925782 7.765625 1.429687 5.71875-2.046876 11.5-7.765626 12.929687l-34.582031 8.660156v278.421876l180.160157-20.011719c3.03125-.277344 6.039062.640625 8.300781 2.667969 2.261719 2.027343 3.539062 4.882812 3.539062 7.914062 0 2.667969 11.351563 10.667969 32 10.667969 20.652344 0 32-8 32-10.667969 0-3.03125 1.300781-5.929688 3.5625-7.957031 2.261719-2.027344 5.3125-2.945313 8.300781-2.667969l180.160157 20.011719v-278.378907l-34.582031-8.660156c-5.71875-1.429687-9.195313-7.210937-7.765626-12.929687 1.40625-5.738281 7.167969-9.238281 12.929688-7.765625l42.664062 10.667968c4.738282 1.195313 8.066407 5.460938 8.066407 10.347657v298.664062c0 3.03125-1.300781 5.933594-3.5625 7.957031-1.964844 1.75-4.480469 2.710938-7.105469 2.710938zm0 0"/><path d="m202.667969 341.667969c-5.890625 0-10.667969-4.78125-10.667969-10.667969v-32c0-5.886719 4.777344-10.667969 10.667969-10.667969 5.886719 0 10.664062 4.78125 10.664062 10.667969v32c0 5.886719-4.777343 10.667969-10.664062 10.667969zm0 0"/><path d="m288 341.667969c-5.886719 0-10.667969-4.78125-10.667969-10.667969v-32c0-5.886719 4.78125-10.667969 10.667969-10.667969s10.667969 4.78125 10.667969 10.667969v32c0 5.886719-4.78125 10.667969-10.667969 10.667969zm0 0"/></svg>